# xmcd
#
# Track frame offsets:
# 150
# 12923
# 28052
# 48369
# 65499
# 83049
# 108750
# 118731
# 132147
# 147567
# 164667
# 168961
# 187057
# 202072
#
# Disc length: 2887 seconds
#
#
# Revision: 0
# Processed by: cddbd v1.5.1PL0 Copyright (c) Steve Scherf et al.
# Submitted via: FreeRIP 2.70 
#
DISCID=c80b450e
DTITLE=Medina Green - U-Know The Flex The Mix Tape: Vol. 1
DYEAR=2004
DGENRE=Hip-Hop
TTITLE0=Intro - illson ft. Ali Shine
TTITLE1=Beef - Mos Def
TTITLE2=Crosstown Beef - Medina Green ft. Mos Def
TTITLE3=Cats Copy - illson
TTITLE4=It's Nothin - illson ft. Magnetic
TTITLE5=Pump Da pump - Medina Green
TTITLE6=Excellence - Mos Def
TTITLE7=Slow and Tender - Medina Green
TTITLE8=Somethimes - illson ft. Ali Shine
TTITLE9=OG From long Time - illson ft. Ali Shine
TTITLE10=Freestyle - illson ft. Ali Shine
TTITLE11=Sugar - Medina Green
TTITLE12=Double Rubberband Rap - Medina Green
TTITLE13=Oki Doki - illson
EXTD=
EXTT0=
EXTT1=
EXTT2=
EXTT3=
EXTT4=
EXTT5=
EXTT6=
EXTT7=
EXTT8=
EXTT9=
EXTT10=
EXTT11=
EXTT12=
EXTT13=
PLAYORDER=
